<?xml version="1.0" encoding="UTF-8" standalone="no"?>
<!-- Created with Inkscape (http://www.inkscape.org/) -->

<svg
   width="14"
   height="14"
   viewBox="0 0 3.7041666 3.7041668"
   version="1.1"
   id="svg5"
   inkscape:version="1.1.1 (3bf5ae0d25, 2021-09-20)"
   sodipodi:docname="colour_picker_icon.svg"
   xmlns:inkscape="http://www.inkscape.org/namespaces/inkscape"
   xmlns:sodipodi="http://sodipodi.sourceforge.net/DTD/sodipodi-0.dtd"
   xmlns="http://www.w3.org/2000/svg"
   xmlns:svg="http://www.w3.org/2000/svg">
  <sodipodi:namedview
     id="namedview7"
     pagecolor="#505050"
     bordercolor="#eeeeee"
     borderopacity="1"
     inkscape:pageshadow="0"
     inkscape:pageopacity="0"
     inkscape:pagecheckerboard="0"
     inkscape:document-units="px"
     showgrid="false"
     inkscape:zoom="256"
     inkscape:cx="1.4726562"
     inkscape:cy="12.111328"
     inkscape:window-width="1920"
     inkscape:window-height="1001"
     inkscape:window-x="-9"
     inkscape:window-y="-9"
     inkscape:window-maximized="1"
     inkscape:current-layer="layer1"
     units="px"
     width="14px"
     inkscape:snap-text-baseline="true"
     inkscape:snap-center="true"
     inkscape:snap-object-midpoints="true"
     inkscape:snap-midpoints="true"
     inkscape:snap-smooth-nodes="true"
     inkscape:snap-intersection-paths="true"
     inkscape:object-paths="true"
     inkscape:snap-page="true" />
  <defs
     id="defs2" />
  <g
     inkscape:label="Layer 1"
     inkscape:groupmode="layer"
     id="layer1">
    <path
       id="rect854-9-6"
       style="fill:#ffffff;fill-opacity:1;stroke-width:1.05833"
       d="m -2.562153,1.6597235 -0.3882271,-0.396875 -0.405523,0.396875 v 3.8364584 l 0.1322917,0.5291666 0.1322917,0.2645834 c 0.085505,0.085505 0.179078,0.085505 0.2645833,0 L -2.6944447,6.0253485 -2.562153,5.4961819 M -3.0913197,3.1149318 h 0.2645833 v 2.3812501 h -0.2645833 z"
       sodipodi:nodetypes="cccccccccccccc" />
    <path
       id="rect3241-0"
       style="fill:#36d897;stroke-width:1.05833"
       d="m -1.3229166,-2.1166668 h 0.2645833 v 2.64583326 h -0.2645833 z" />
    <path
       id="rect3241-5-8"
       style="fill:#36d897;stroke-width:1.05833"
       d="m -1.3229167,0.79375014 0.1322916,0.1322915 0.1322917,0.39687496 h 0.13229172 0.1322916 l 0.1322917,-0.39687496 0.1322916,-0.1322915 V 0.52916684 H -1.3229167 Z"
       sodipodi:nodetypes="cccccccccc" />
    <path
       id="rect3241-36-7"
       style="fill:#36d897;stroke-width:1.05833"
       d="m -0.79375011,-2.1166668 h 0.26458335 v 2.64583326 h -0.26458335 z" />
    <path
       id="rect11751"
       style="fill:#ffffff;fill-opacity:1;stroke-width:0.0529167"
       d="m -2.2975698,2.5857651 h 1e-7 c 0.1465791,0 0.2645833,0.1180042 0.2645833,0.2645833 0,0.1465792 -0.1180042,0.2645834 -0.2645833,0.2645834 h -1e-7 c -0.071528,0 -0.2645832,0 -0.2645832,0 0,0 -1e-7,-0.1895321 -1e-7,-0.2645834 0,-0.074821 1e-7,-0.2645832 1e-7,-0.2645832 0,0 0.1928254,-10e-8 0.2645832,-10e-8 z"
       sodipodi:nodetypes="ssssscscs" />
    <path
       id="rect11751-4"
       style="fill:#ffffff;fill-opacity:1;stroke-width:0.0529167"
       d="m -3.6204863,2.5857652 h -10e-8 c -0.1465791,0 -0.2645833,0.1180042 -0.2645833,0.2645833 0,0.1465792 0.1180042,0.2645834 0.2645833,0.2645834 h 10e-8 c 0.071528,0 0.2645833,0 0.2645833,0 0,0 0,-0.1895321 0,-0.2645834 0,-0.074821 0,-0.2645832 0,-0.2645832 0,0 -0.1928255,-10e-8 -0.2645833,-10e-8 z"
       sodipodi:nodetypes="ssssscscs" />
    <path
       id="rect854-9-6-0"
       style="fill:#ffffff;fill-opacity:1;stroke-width:1.05833"
       d="M 3.1490156,0.00612 3.7041667,0 3.7102867,0.567381 0.99750091,3.2801668 c 0,0 -0.30253803,0.2046594 -0.4677216,0.280633 -0.0895834,0.041203 -0.28063307,0.093544 -0.28063307,0.093544 -0.1209223,0 -0.1870884,-0.066166 -0.1870886,-0.1870886 0,0 0.05233822,-0.1910462 0.09353936,-0.2806278 C 0.2315698,3.0214435 0.4362299,2.7189058 0.4362299,2.7189058 M 2.4942053,1.409285 2.3071167,1.2221964 0.62331871,2.9059945 0.81040731,3.0930831 Z"
       sodipodi:nodetypes="ccccsccscccccc" />
    <path
       id="rect11751-3"
       style="fill:#ffffff;fill-opacity:1;stroke-width:0.0529167"
       d="m 2.3071167,0.4738417 v 0 c -0.1036471,-0.1036471 -0.2705303,-0.1036471 -0.3741773,0 -0.1036472,0.1036471 -0.1036472,0.2705302 -1e-7,0.3741773 l 1e-7,1e-7 c 0.050578,0.050578 0.1870885,0.1870886 0.1870885,0.1870886 0,0 0.1340195,-0.1340194 0.1870888,-0.1870887 0.052906,-0.052906 0.1870885,-0.1870886 0.1870885,-0.1870886 0,0 -0.136348,-0.1363482 -0.1870885,-0.1870887 z"
       sodipodi:nodetypes="ssssscscs" />
    <path
       id="rect11751-4-3"
       style="fill:#ffffff;fill-opacity:1;stroke-width:0.0529167"
       d="m 3.2425599,1.409285 1e-7,1e-7 c 0.103647,0.1036471 0.103647,0.2705302 0,0.3741773 -0.1036472,0.1036471 -0.2705303,0.1036471 -0.3741774,1e-7 l -10e-8,-1e-7 C 2.8178046,1.7328845 2.6812939,1.5963737 2.6812939,1.5963737 c 0,0 0.1340194,-0.1340194 0.1870887,-0.1870887 0.052906,-0.052906 0.1870886,-0.1870885 0.1870886,-0.1870885 0,0 0.1363483,0.1363481 0.1870887,0.1870885 z"
       sodipodi:nodetypes="ssssscscs" />
  </g>
</svg>
